<svg width="54" height="54" viewBox="0 0 54 54" fill="none" xmlns="http://www.w3.org/2000/svg">
<rect x="0.5" y="0.5" width="53" height="53" rx="5.5" fill="#414146" stroke="#655A5A" stroke-dasharray="2 2"/>
<rect x="9.5" y="9.5" width="35" height="35" rx="5.5" fill="#515157" stroke="#BABABA" stroke-dasharray="2 2"/>
<circle cx="12" cy="12" r="3" fill="#D9D9D9"/>
<circle cx="12" cy="42" r="3" fill="#D9D9D9"/>
<circle cx="42" cy="12" r="3" fill="#D9D9D9"/>
<circle cx="42" cy="42" r="3" fill="#D9D9D9"/>
<path d="M34.3084 25.7586H27.6878V19.6898C27.6878 19.3101 27.3777 19 26.9981 19C26.6185 19 26.3084 19.3101 26.3084 19.6898V25.7586H19.6897C19.3101 25.7586 19 26.0687 19 26.4484C19 26.828 19.3101 27.1381 19.6897 27.1381H26.3103V34.3102C26.3103 34.6899 26.6204 35 27 35C27.3796 35 27.6897 34.6899 27.6897 34.3102V27.1381H34.3103C34.6899 27.1381 35 26.828 35 26.4484C34.9981 26.0687 34.688 25.7586 34.3084 25.7586Z" fill="#CACACA"/>
</svg>
