<svg width="54" height="54" viewBox="0 0 54 54" fill="none" xmlns="http://www.w3.org/2000/svg">
<path d="M2 30.2727H19.0485C19.9728 32.3564 21.6342 34.0395 23.7425 34.87V52V53H24.7425H29.2575H30.2575V52V34.87C32.3658 34.0395 34.0272 32.3564 34.9515 30.2727H52H53V29.2727V24.7273V23.7273H52H51.8328H34.8227C33.9826 21.6005 32.2069 19.8115 30.0903 18.9642V2V1H29.0903H24.5753H23.5753V2V18.9642C21.4586 19.8115 19.683 21.6005 18.8429 23.7273H2H1V24.7273V29.2727V30.2727H2ZM26.9164 29.1145C25.7683 29.1145 24.7391 28.1876 24.7391 26.9158C24.7391 25.7436 25.6694 24.7172 26.9164 24.7172C28.1973 24.7172 29.0936 25.6099 29.0936 26.9158C29.0936 28.0534 28.03 29.1145 26.9164 29.1145Z" fill="#FF9A00" stroke="white" stroke-width="2"/>
</svg>
