<?xml version="1.0" standalone="no"?><!DOCTYPE svg PUBLIC "-//W3C//DTD SVG 1.1//EN" "http://www.w3.org/Graphics/SVG/1.1/DTD/svg11.dtd"><svg class="icon" width="256px" height="256.00px" viewBox="0 0 1024 1024" version="1.1" xmlns="http://www.w3.org/2000/svg"><path fill="#bbbbbb" d="M458.69056 948.9408v74.39872c-102.4512-10.22464-196.25472-51.00544-272.1024-113.024l52.2752-52.2752c62.09024 48.87552 137.58464 81.39776 219.8272 90.89536z m562.47296-434.70848c0 263.99744-202.6496 482.9696-460.06784 509.0304v-74.5472c216.6272-25.99424 385.95584-211.73248 385.95584-435.072 0-223.27296-169.32352-409.00096-385.95584-434.9952V5.19168c257.42336 26.07104 460.06784 245.0432 460.06784 509.04064zM166.24128 785.83296l-52.13696 52.14208C50.82112 760.9088 9.51808 665.20576 0 560.67584h73.36448c9.1136 84.41856 42.44992 161.85344 92.8768 225.15712zM113.77664 190.88384l51.65056 51.6608C117.12 303.5392 84.64384 377.56928 74.3424 458.2656H0.95744C12.032 357.632 52.60288 265.53344 113.77664 190.88384zM458.69056 5.12v73.30304c-82.69312 9.55392-158.5664 42.37824-220.8512 91.6992L186.17856 118.4768C262.10304 56.2688 356.06528 15.36 458.69568 5.12zM652.8 512l-276.48 166.4v-332.8z" /></svg>