<svg width="6.000000" height="4.000000" viewBox="0 0 6 4" fill="none" xmlns="http://www.w3.org/2000/svg" xmlns:xlink="http://www.w3.org/1999/xlink">
	<desc>
			Created with Pixso.
	</desc>
	<defs/>
	<path id="path" d="M0.0749512 0.56472L2.69995 3.85882C2.70874 3.86974 2.71802 3.88015 2.72803 3.89005C2.73804 3.89996 2.74854 3.90928 2.75977 3.91803C2.77075 3.92677 2.78247 3.93489 2.79468 3.94237C2.80688 3.94984 2.81934 3.95663 2.83228 3.96274C2.84521 3.96884 2.85864 3.97422 2.87231 3.97887C2.88574 3.98353 2.89966 3.98742 2.91382 3.99055C2.92798 3.9937 2.94214 3.99606 2.95654 3.99763C2.97095 3.99921 2.9856 4 3 4C3.0144 4 3.02905 3.99921 3.04346 3.99763C3.05786 3.99606 3.07202 3.9937 3.08618 3.99055C3.10034 3.98742 3.11426 3.98353 3.12769 3.97887C3.14136 3.97422 3.15479 3.96884 3.16772 3.96274C3.18066 3.95663 3.19312 3.94984 3.20532 3.94237C3.21753 3.93489 3.22925 3.92677 3.24023 3.91803C3.25146 3.90928 3.26196 3.89996 3.27197 3.89005C3.28198 3.88015 3.29126 3.86974 3.30005 3.85882L5.92505 0.56472C5.9458 0.538506 5.96265 0.510094 5.9751 0.4795C5.98755 0.448906 5.99536 0.41729 5.99854 0.384651C6.00171 0.352005 6 0.319588 5.99341 0.287384C5.98706 0.25518 5.97607 0.224419 5.96045 0.195107C5.94482 0.165794 5.92529 0.139038 5.90186 0.114845C5.87842 0.0906525 5.85181 0.0699463 5.82227 0.0527115C5.79248 0.0354843 5.76099 0.0223923 5.72754 0.0134354C5.69409 0.00447845 5.65991 0 5.625 0L0.375 0C0.340088 0 0.305908 0.00447845 0.272461 0.0134354C0.239014 0.0223923 0.20752 0.0354843 0.177734 0.0527115C0.148193 0.0699463 0.121582 0.0906525 0.0981445 0.114845C0.074707 0.139038 0.0551758 0.165794 0.0395508 0.195107C0.0239258 0.224419 0.0129395 0.25518 0.0065918 0.287384C0 0.319588 -0.00170898 0.352005 0.00146484 0.384651C0.00463867 0.41729 0.0124512 0.448906 0.0249023 0.4795C0.0373535 0.510094 0.0541992 0.538506 0.0749512 0.56472Z" fill="#FFFFFF" fill-opacity="1.000000" fill-rule="nonzero"/>
</svg>
