<svg width="9" height="8" viewBox="0 0 9 8" fill="none" xmlns="http://www.w3.org/2000/svg">
<path d="M4.54245 7.07152L8.18344 1.3133C8.25362 1.20245 8.25794 1.0621 8.1946 0.947653C8.16355 0.8912 8.11792 0.844119 8.06246 0.811327C8.00701 0.778534 7.94376 0.761233 7.87934 0.76123L0.599146 0.76123C0.468147 0.76123 0.347224 0.832488 0.283883 0.947652C0.254544 1.00076 0.239188 1.06045 0.239258 1.12112C0.239267 1.18912 0.258479 1.25574 0.29468 1.3133L3.93424 7.07152C3.96664 7.12288 4.01153 7.16519 4.0647 7.19452C4.11788 7.22384 4.17761 7.23922 4.23834 7.23923C4.29907 7.23922 4.3588 7.22384 4.41198 7.19452C4.46516 7.16519 4.51004 7.12288 4.54245 7.07152Z" fill="#99A1B0"/>
</svg>
