<svg width="7" height="8" viewBox="0 0 7 8" fill="none" xmlns="http://www.w3.org/2000/svg">
<path d="M6.31029 3.69681L0.552069 0.0558159C0.441224 -0.0143624 0.300867 -0.0186811 0.186422 0.0446593C0.12997 0.0757055 0.0828888 0.12134 0.0500962 0.176796C0.0173037 0.232252 2.69877e-06 0.295496 0 0.359922L0 7.64011C0 7.77111 0.0712579 7.89203 0.186422 7.95537C0.239527 7.98471 0.299219 8.00007 0.359889 8C0.42789 7.99999 0.494506 7.98078 0.552069 7.94458L6.31029 4.30502C6.36165 4.27262 6.40396 4.22773 6.43329 4.17456C6.46261 4.12138 6.47799 4.06164 6.478 4.00092C6.47799 3.94019 6.46261 3.88045 6.43329 3.82728C6.40396 3.7741 6.36165 3.72922 6.31029 3.69681Z" fill="#99A1B0"/>
</svg>
