<svg width="35" height="35" viewBox="0 0 35 35" fill="none" xmlns="http://www.w3.org/2000/svg">
<g clip-path="url(#clip0_190_3866)">
<path d="M18.2978 5.56457C18.1351 5.00609 17.7964 4.51505 17.3322 4.16451C16.868 3.81397 16.303 3.62265 15.7213 3.61902H3.68154C3.20158 3.624 2.74309 3.81868 2.40618 4.16055C2.06926 4.50242 1.8813 4.96371 1.88332 5.44369V12.4477H16.2993V15.0015H33.4164V8.42057C33.4184 7.94059 33.2305 7.47931 32.8936 7.13744C32.5567 6.79557 32.0982 6.60089 31.6182 6.59591H19.6804C19.3744 6.57802 19.0803 6.4708 18.8345 6.28749C18.5888 6.10418 18.4021 5.85284 18.2978 5.56457Z" fill="#34B7EA"/>
<path d="M31.6182 6.59593H19.6804C19.3743 6.57805 19.0802 6.47082 18.8345 6.28752C18.5887 6.10421 18.4021 5.85287 18.2977 5.5646C18.2977 5.54571 18.2977 5.52682 18.2977 5.50793H1.8833V11.6506H16.2993V15.0015H33.4164V8.4206C33.4184 7.94062 33.2305 7.47934 32.8936 7.13747C32.5566 6.7956 32.0981 6.60092 31.6182 6.59593Z" fill="url(#paint0_linear_190_3866)"/>
<path d="M32.1169 30.819H3.68157C3.21458 30.808 2.76917 30.6201 2.43538 30.2933C2.10158 29.9665 1.90428 29.5252 1.88335 29.0585L0.859574 11.1519C0.846352 10.9051 0.882881 10.6582 0.966988 10.4258C1.0511 10.1934 1.18106 9.98033 1.34917 9.79918C1.51727 9.61804 1.72008 9.47254 1.94554 9.37134C2.171 9.27014 2.4145 9.2153 2.66157 9.21008H33.0576C33.3046 9.2153 33.5481 9.27014 33.7736 9.37134C33.9991 9.47254 34.2019 9.61804 34.37 9.79918C34.5381 9.98033 34.6681 10.1934 34.7522 10.4258C34.8363 10.6582 34.8728 10.9051 34.8596 11.1519L33.8962 29.0359C33.8876 29.5054 33.6974 29.9534 33.3657 30.2858C33.034 30.6182 32.5864 30.8093 32.1169 30.819Z" fill="#77D1FF"/>
<path d="M1.85303 28.5524L1.88325 29.0586C1.90418 29.5252 2.10148 29.9666 2.43527 30.2933C2.76907 30.6201 3.21447 30.808 3.68147 30.819H32.1168C32.5863 30.8094 33.0339 30.6183 33.3656 30.2858C33.6973 29.9534 33.8874 29.5055 33.8961 29.0359L33.9226 28.5524H1.85303Z" fill="url(#paint1_linear_190_3866)"/>
<path d="M34.8142 11.9301L34.8596 11.1519C34.8728 10.9054 34.8364 10.6588 34.7525 10.4267C34.6686 10.1945 34.539 9.98161 34.3713 9.80051C34.2036 9.61942 34.0012 9.47385 33.7762 9.37243C33.5512 9.271 33.3081 9.2158 33.0614 9.21008H2.66157C2.4145 9.2153 2.171 9.27014 1.94554 9.37134C1.72008 9.47254 1.51727 9.61804 1.34917 9.79918C1.18106 9.98033 1.0511 10.1934 0.966988 10.4258C0.882881 10.6582 0.846352 10.9051 0.859574 11.1519L0.908685 11.9301H34.8142Z" fill="url(#paint2_linear_190_3866)"/>
</g>
<defs>
<linearGradient id="paint0_linear_190_3866" x1="17.648" y1="15.0015" x2="17.648" y2="5.50793" gradientUnits="userSpaceOnUse">
<stop stop-color="#006EA6"/>
<stop offset="1" stop-color="#34B7EA"/>
</linearGradient>
<linearGradient id="paint1_linear_190_3866" x1="17.8897" y1="30.819" x2="17.8897" y2="28.5524" gradientUnits="userSpaceOnUse">
<stop stop-color="#36BBFF"/>
<stop offset="1" stop-color="#77D1FF"/>
</linearGradient>
<linearGradient id="paint2_linear_190_3866" x1="17.8596" y1="11.9301" x2="17.8596" y2="9.21008" gradientUnits="userSpaceOnUse">
<stop stop-color="#77D1FF"/>
<stop offset="1" stop-color="#3BBDFF"/>
</linearGradient>
<clipPath id="clip0_190_3866">
<rect width="34" height="34" fill="white" transform="translate(0.859375 0.218994)"/>
</clipPath>
</defs>
</svg>
