<svg width="54" height="54" viewBox="0 0 54 54" fill="none" xmlns="http://www.w3.org/2000/svg">
<rect x="0.5" y="0.5" width="53" height="53" rx="5.5" fill="#414146" stroke="#655A5A" stroke-dasharray="2 2"/>
<path d="M31.3034 21.1121L42.0511 10.3644L43.6124 11.9256L32.8646 22.6734L31.3034 21.1121ZM33.379 9H44.9729V11.2079H33.379V9ZM42.7691 9.00414H44.977V20.598H42.7691V9.00414ZM10.3643 11.9488L11.9255 10.3875L22.6733 21.1352L21.1121 22.6965L10.3643 11.9488ZM9 9.02714H11.2079V20.621H9V9.02714ZM9.00414 9.023H20.598V11.2309H9.00414V9.023ZM10.3876 42.0743L21.1122 31.3496L22.6735 32.9109L11.9488 43.6355L10.3876 42.0743ZM9.02714 42.7921H20.621V45H9.02714V42.7921ZM9.023 33.402H11.2309V44.9959H9.023V33.402ZM31.2952 32.8335L32.8564 31.2722L43.6354 42.0512L42.0742 43.6125L31.2952 32.8335ZM42.7921 33.379H45V44.9729H42.7921V33.379ZM33.402 42.7691H44.9959V44.977H33.402V42.7691Z" fill="#BBBBBB"/>
</svg>
