<svg width="12" height="12" viewBox="0 0 12 12" fill="none" xmlns="http://www.w3.org/2000/svg">
<path d="M10.0179 5.1H3.01531V4.21758H3.01351C3.01374 4.21165 3.01531 4.20605 3.01531 4.2C3.01531 2.5871 4.35429 1.275 6.00001 1.275C7.64583 1.275 8.88736 1.70701 9.0995 3.16734C9.13524 3.41337 9.30511 3.61733 9.55869 3.61733C9.81227 3.61733 10.0326 3.41542 10.0179 3.16734C9.89194 1.05069 8.15221 0.375 6.00001 0.375C3.8478 0.375 2.09694 2.09086 2.09694 4.2C2.09694 4.20605 2.09851 4.21165 2.09873 4.21758H2.09694V5.1H1.98214C1.09595 5.1 0.375 5.80655 0.375 6.675V10.05C0.375 10.9185 1.09595 11.625 1.98214 11.625H10.0179C10.9041 11.625 11.625 10.9185 11.625 10.05V6.675C11.625 5.80655 10.9041 5.1 10.0179 5.1ZM10.7066 10.05C10.7066 10.4222 10.3977 10.725 10.0179 10.725H1.98214C1.60232 10.725 1.29337 10.4222 1.29337 10.05V6.675C1.29337 6.30278 1.60233 6.00001 1.98214 6.00001H10.0179C10.3977 6.00001 10.7066 6.30279 10.7066 6.675L10.7066 10.05Z" fill="#B8BCCC"/>
</svg>
