<?xml version="1.0" standalone="no"?><!DOCTYPE svg PUBLIC "-//W3C//DTD SVG 1.1//EN" "http://www.w3.org/Graphics/SVG/1.1/DTD/svg11.dtd"><svg t="1732850088102" class="icon" viewBox="0 0 1024 1024" version="1.1" xmlns="http://www.w3.org/2000/svg" p-id="4420" xmlns:xlink="http://www.w3.org/1999/xlink" width="256" height="256"><path d="M512 537.6a230.4 230.4 0 1 1 0-460.8 230.4 230.4 0 0 1 0 460.8z m0-51.2a179.2 179.2 0 1 0 0-358.4 179.2 179.2 0 0 0 0 358.4z" fill="#cdcdcd" p-id="4421"></path><path d="M947.2 921.6a25.6 25.6 0 1 1-51.2 0 382.464 382.464 0 0 0-101.7344-260.4032 25.6 25.6 0 1 1 37.5808-34.7136A433.664 433.664 0 0 1 947.2 921.6zM512 486.4a25.6 25.6 0 1 1 0 51.2A384 384 0 0 0 128 921.6a25.6 25.6 0 1 1-51.2 0A435.2 435.2 0 0 1 512 486.4z" fill="#cdcdcd" p-id="4422"></path></svg>