<?xml version="1.0" standalone="no"?><!DOCTYPE svg PUBLIC "-//W3C//DTD SVG 1.1//EN" "http://www.w3.org/Graphics/SVG/1.1/DTD/svg11.dtd"><svg t="1735184906843" class="icon" viewBox="0 0 1024 1024" version="1.1" xmlns="http://www.w3.org/2000/svg" p-id="9051" xmlns:xlink="http://www.w3.org/1999/xlink" width="256" height="256"><path d="M861.83206 422.839458a42.679654 42.679654 0 0 1 42.679654 42.679654A388.294743 388.294743 0 0 1 554.595892 851.970684v86.792886h170.677658a42.679654 42.679654 0 0 1 4.997042 85.031633l-4.997042 0.204797H298.640845a42.679654 42.679654 0 0 1-4.997042-85.031634l4.997042-0.286715h170.472861v-87.693992a385.673343 385.673343 0 0 1-133.97807-41.778548l64.347156-64.019482a303.099272 303.099272 0 0 0 419.587695-279.670517 42.679654 42.679654 0 0 1 42.679654-42.679654zM1011.456605 12.508579a42.679654 42.679654 0 0 1 3.522505 56.319122l-3.522505 4.095936L72.790929 1011.507395A42.679654 42.679654 0 0 1 8.935285 955.188273l3.522505-4.095936L951.123467 12.508579a42.679654 42.679654 0 0 1 60.333138 0z m-239.243627 359.909906v96.950807a255.996006 255.996006 0 0 1-339.061591 242.233661l71.883679-71.883678a170.677657 170.677657 0 0 0 181.613806-161.789476l0.204797-8.519547v-11.5915l85.359309-85.400267zM170.642842 422.839458a42.679654 42.679654 0 0 1 42.679654 42.679654 301.788572 301.788572 0 0 0 53.24717 171.373967l-61.275204 61.152326a386.574449 386.574449 0 0 1-77.331274-232.526293 42.679654 42.679654 0 0 1 42.679654-42.679654zM516.216971 0.015974a256.036966 256.036966 0 0 1 234.328505 152.778417l-67.419109 67.419108a170.718617 170.718617 0 0 0-337.341297 27.319894l-0.204797 8.478588v213.316352a170.145186 170.145186 0 0 0 16.05607 72.334231l-62.83166 62.83166a254.562429 254.562429 0 0 1-38.256043-122.878083l-0.286716-12.287808V256.011981A255.996006 255.996006 0 0 1 516.216971 0.015974z" fill="#BBBBBB" p-id="9052"></path></svg>