<svg width="54" height="54" viewBox="0 0 54 54" fill="none" xmlns="http://www.w3.org/2000/svg">
<rect x="0.5" y="0.5" width="53" height="53" rx="5.5" fill="#414146" stroke="#655A5A" stroke-dasharray="2 2"/>
<path d="M27.26 9C29.177 9 31.0155 9.76152 32.371 11.117C33.7265 12.4725 34.488 14.311 34.488 16.228V27.772C34.488 29.689 33.7265 31.5274 32.371 32.8829C31.0155 34.2384 29.177 34.9999 27.26 34.9999C25.3431 34.9999 23.5046 34.2384 22.1491 32.8829C20.7936 31.5274 20.0321 29.689 20.0321 27.772V16.228C20.0321 14.311 20.7936 12.4725 22.1491 11.117C23.5046 9.76152 25.3431 9 27.26 9ZM27.26 11.6C26.0326 11.6 24.8555 12.0876 23.9876 12.9555C23.1196 13.8234 22.632 15.0006 22.632 16.228V27.772C22.632 28.9994 23.1196 30.1766 23.9876 31.0445C24.8555 31.9124 26.0326 32.4 27.26 32.4C28.4875 32.4 29.6646 31.9124 30.5325 31.0445C31.4004 30.1766 31.888 28.9994 31.888 27.772V16.228C31.888 15.0006 31.4004 13.8234 30.5325 12.9555C29.6646 12.0876 28.4875 11.6 27.26 11.6ZM36.36 42.8H28.56V40.044C31.7041 39.664 34.6014 38.1493 36.7078 35.7844C38.8142 33.4195 39.9849 30.367 40 27.2C40 27.0293 39.9664 26.8602 39.9011 26.7024C39.8358 26.5447 39.74 26.4014 39.6193 26.2806C39.4986 26.1599 39.3553 26.0641 39.1975 25.9988C39.0398 25.9334 38.8707 25.8998 38.7 25.8998C38.5293 25.8998 38.3602 25.9334 38.2025 25.9988C38.0447 26.0641 37.9014 26.1599 37.7807 26.2806C37.66 26.4014 37.5642 26.5447 37.4989 26.7024C37.4336 26.8602 37.4 27.0293 37.4 27.2C37.3998 29.9581 36.3041 32.6033 34.3537 34.5535C32.4034 36.5038 29.7582 37.5994 27 37.5994C24.2419 37.5994 21.5967 36.5038 19.6464 34.5535C17.696 32.6033 16.6002 29.9581 16.6001 27.2C16.6001 26.8552 16.4631 26.5246 16.2193 26.2808C15.9755 26.037 15.6448 25.9 15.3001 25.9C14.9553 25.9 14.6246 26.037 14.3808 26.2808C14.137 26.5246 14.0001 26.8552 14.0001 27.2C13.9896 30.475 15.2155 33.6332 17.4329 36.0434C19.6502 38.4536 22.6956 39.938 25.96 40.2V42.8H18.1601C17.8153 42.8001 17.4847 42.937 17.241 43.1808C16.9972 43.4246 16.8603 43.7553 16.8603 44.1C16.8603 44.4447 16.9972 44.7754 17.241 45.0192C17.4847 45.263 17.8153 45.3999 18.1601 45.4H36.36C36.7048 45.3999 37.0354 45.263 37.2791 45.0192C37.5229 44.7754 37.6598 44.4447 37.6598 44.1C37.6598 43.7553 37.5229 43.4246 37.2791 43.1808C37.0354 42.937 36.7048 42.8001 36.36 42.8Z" fill="#BBBBBB"/>
</svg>
