<?xml version="1.0" standalone="no"?><!DOCTYPE svg PUBLIC "-//W3C//DTD SVG 1.1//EN" "http://www.w3.org/Graphics/SVG/1.1/DTD/svg11.dtd"><svg t="1732869795616" class="icon" viewBox="0 0 1024 1024" version="1.1" xmlns="http://www.w3.org/2000/svg" p-id="4255" xmlns:xlink="http://www.w3.org/1999/xlink" width="256" height="256"><path d="M319.27 641.9H190.79c-34.64 0-62.83 28.18-62.83 62.83v128.48c0 34.64 28.18 62.83 62.83 62.83h128.48c34.64 0 62.83-28.18 62.83-62.83V704.73c0-34.65-28.18-62.83-62.83-62.83z m22.83 191.31c0 12.59-10.24 22.83-22.83 22.83H190.79c-12.59 0-22.83-10.24-22.83-22.83V704.73c0-12.59 10.24-22.83 22.83-22.83h128.48c12.59 0 22.83 10.24 22.83 22.83v128.48z" fill="#FFFFFF" p-id="4256"></path><path d="M790.38 127.96H276.45c-58.26 0-105.66 47.4-105.66 105.66v256.97c0 11.05 8.95 20 20 20s20-8.95 20-20V233.62c0-36.2 29.45-65.66 65.66-65.66h513.94c36.2 0 65.66 29.45 65.66 65.66v513.94c0 36.2-29.45 65.66-65.66 65.66H533.41c-11.05 0-20 8.95-20 20s8.95 20 20 20h256.97c58.26 0 105.66-47.4 105.66-105.66V233.62c0-58.26-47.4-105.66-105.66-105.66z" fill="#FFFFFF" p-id="4257"></path><path d="M478.64 549.43c0.28 0.21 0.55 0.42 0.84 0.62 0.29 0.19 0.59 0.36 0.89 0.54 0.26 0.16 0.52 0.32 0.79 0.47 0.3 0.16 0.61 0.3 0.92 0.44 0.28 0.13 0.56 0.27 0.85 0.39 0.3 0.12 0.61 0.22 0.91 0.33 0.31 0.11 0.62 0.23 0.94 0.33 0.3 0.09 0.61 0.16 0.92 0.24 0.33 0.08 0.65 0.17 0.98 0.24 0.35 0.07 0.71 0.11 1.06 0.16 0.29 0.04 0.58 0.1 0.87 0.13 0.66 0.06 1.31 0.1 1.97 0.1H661.9c11.05 0 20-8.95 20-20s-8.95-20-20-20H538.87l180-180c7.81-7.81 7.81-20.47 0-28.28-7.81-7.81-20.47-7.81-28.29 0l-180 180V362.1c0-11.05-8.95-20-20-20s-20 8.95-20 20v171.31c0 0.66 0.03 1.32 0.1 1.97 0.03 0.3 0.09 0.59 0.13 0.88 0.05 0.35 0.09 0.7 0.16 1.05 0.07 0.34 0.16 0.66 0.24 0.99 0.08 0.3 0.14 0.61 0.23 0.91 0.1 0.32 0.22 0.63 0.33 0.95 0.11 0.3 0.21 0.6 0.33 0.9 0.12 0.29 0.27 0.58 0.4 0.86 0.14 0.31 0.28 0.61 0.44 0.91 0.15 0.27 0.31 0.53 0.47 0.8 0.18 0.29 0.34 0.59 0.53 0.88 0.2 0.29 0.41 0.57 0.62 0.85 0.18 0.24 0.35 0.49 0.54 0.72 0.41 0.49 0.84 0.97 1.29 1.42 0.01 0.01 0.02 0.03 0.04 0.04l0.05 0.05c0.45 0.45 0.92 0.87 1.41 1.28 0.26 0.21 0.51 0.38 0.75 0.56z" fill="#ffffff" p-id="4258"></path></svg>