<?xml version="1.0" standalone="no"?><!DOCTYPE svg PUBLIC "-//W3C//DTD SVG 1.1//EN" "http://www.w3.org/Graphics/SVG/1.1/DTD/svg11.dtd"><svg t="1700529772774" class="icon custom-cursor-default-hover" viewBox="0 0 1024 1024" version="1.1" xmlns="http://www.w3.org/2000/svg" p-id="5689" xmlns:xlink="http://www.w3.org/1999/xlink" width="128" height="128"><path d="M443.733333 558.933333c-4.266667-4.266667-12.8-4.266667-17.066666-4.266666H170.666667c-25.6 0-42.666667 17.066667-42.666667 42.666666s17.066667 42.666667 42.666667 42.666667h153.6l-226.133334 226.133333c-17.066667 17.066667-17.066667 42.666667 0 59.733334 8.533333 8.533333 17.066667 12.8 29.866667 12.8s21.333333-4.266667 29.866667-12.8L384 699.733333V853.333333c0 25.6 17.066667 42.666667 42.666667 42.666667s42.666667-17.066667 42.666666-42.666667v-256c0-4.266667 0-12.8-4.266666-17.066666-4.266667-8.533333-12.8-17.066667-21.333334-21.333334zM925.866667 98.133333c-17.066667-17.066667-42.666667-17.066667-59.733334 0L640 324.266667V170.666667c0-25.6-17.066667-42.666667-42.666667-42.666667s-42.666667 17.066667-42.666666 42.666667v256c0 4.266667 0 12.8 4.266666 17.066666 4.266667 8.533333 12.8 17.066667 21.333334 21.333334 4.266667 4.266667 12.8 4.266667 17.066666 4.266666h256c25.6 0 42.666667-17.066667 42.666667-42.666666s-17.066667-42.666667-42.666667-42.666667h-153.6l226.133334-226.133333c17.066667-17.066667 17.066667-42.666667 0-59.733334z" p-id="5690" fill="#e6e6e6"></path></svg>