<?xml version="1.0" standalone="no"?><!DOCTYPE svg PUBLIC "-//W3C//DTD SVG 1.1//EN" "http://www.w3.org/Graphics/SVG/1.1/DTD/svg11.dtd"><svg class="icon" width="256px" height="256.00px" viewBox="0 0 1024 1024" version="1.1" xmlns="http://www.w3.org/2000/svg"><path fill="#ffffff" d="M175.16957436 995.97818832L510.59494311 780.87677186l316.77643424-201.81724401A70.76376756 70.76376756 0 0 0 856.49437184 536.14142997L856.49437183 970.43170275a51.09297373 51.09297373 0 0 0 102.18594615 0l0-912.77596693a51.09297373 51.09297373 0 0 0-102.18594615 0L856.49437184 488.1140355a71.27469722 71.27469722 0 0 0-29.12299449-43.17356335l-316.77643424-201.81724401-336.1917639-214.59048681c-39.08612478-25.54648686-84.81433515 11.49591929-84.81433514 67.18725996L89.58884407 928.27999871C90.35523793 984.22680486 136.08344957 1021.52467519 175.16957436 995.97818832z" /></svg>