<?xml version="1.0" standalone="no"?><!DOCTYPE svg PUBLIC "-//W3C//DTD SVG 1.1//EN" "http://www.w3.org/Graphics/SVG/1.1/DTD/svg11.dtd"><svg class="icon" width="256px" height="256.00px" viewBox="0 0 1024 1024" version="1.1" xmlns="http://www.w3.org/2000/svg"><path fill="#ffffff" d="M512 42.666667a469.333333 469.333333 0 1 0 469.333333 469.333333A469.333333 469.333333 0 0 0 512 42.666667z m0 864a394.666667 394.666667 0 1 1 394.666667-394.666667 395.146667 395.146667 0 0 1-394.666667 394.666667zM427.2 332.106667a37.333333 37.333333 0 0 0-37.333333 37.333333v285.12a37.333333 37.333333 0 0 0 74.666666 0V369.44a37.333333 37.333333 0 0 0-37.333333-37.333333zM596.8 332.106667a37.333333 37.333333 0 0 0-37.333333 37.333333v285.12a37.333333 37.333333 0 1 0 74.666666 0V369.44a37.333333 37.333333 0 0 0-37.333333-37.333333z" /></svg>