<?xml version="1.0" standalone="no"?><!DOCTYPE svg PUBLIC "-//W3C//DTD SVG 1.1//EN" "http://www.w3.org/Graphics/SVG/1.1/DTD/svg11.dtd"><svg class="icon" width="256px" height="256.00px" viewBox="0 0 1024 1024" version="1.1" xmlns="http://www.w3.org/2000/svg"><path fill="#ffffff" d="M512 97.52381c228.912762 0 414.47619 185.563429 414.47619 414.47619s-185.563429 414.47619-414.47619 414.47619S97.52381 740.912762 97.52381 512 283.087238 97.52381 512 97.52381z m0 73.142857C323.486476 170.666667 170.666667 323.486476 170.666667 512s152.81981 341.333333 341.333333 341.333333 341.333333-152.81981 341.333333-341.333333S700.513524 170.666667 512 170.666667z m-73.142857 161.499428a48.761905 48.761905 0 0 1 25.990095 7.509334l201.752381 127.122285a48.761905 48.761905 0 0 1 0.365714 82.261334l-201.752381 129.633523A48.761905 48.761905 0 0 1 390.095238 637.68381v-256.731429a48.761905 48.761905 0 0 1 48.761905-48.761905z m24.380952 92.940191v167.911619l131.949715-84.772572L463.238095 425.106286z" /></svg>