<?xml version="1.0" standalone="no"?><!DOCTYPE svg PUBLIC "-//W3C//DTD SVG 1.1//EN"
        "http://www.w3.org/Graphics/SVG/1.1/DTD/svg11.dtd">
<svg t="1735184513350" class="icon" viewBox="0 0 1025 1024" version="1.1" xmlns="http://www.w3.org/2000/svg" p-id="7921"
     xmlns:xlink="http://www.w3.org/1999/xlink" width="256.25" height="256">
    <path d="M652.569422 94.472586a25.86878 25.86878 0 0 1 17.409787-6.491785 26.262221 26.262221 0 0 1 26.163861 26.262221V529.22546l78.688303 78.688303V114.243022a104.950524 104.950524 0 0 0-173.99951-78.688303L388.176725 221.259114l55.770334 55.770335zM1012.470048 956.798025l-944.259635-944.259634-1.967207-1.967208a39.344151 39.344151 0 1 0-53.704767 57.639182l189.73717 189.63881A157.376606 157.376606 0 0 0 92.800508 407.553671v219.146924a157.376606 157.376606 0 0 0 157.376606 148.13073H355.127637l245.900947 214.917427 6.196704 5.11474a104.950524 104.950524 0 0 0 167.802806-84.098124v-80.360429l181.9667 182.065061a39.344151 39.344151 0 0 0 55.671974-55.671975z m-316.326978-46.032657v4.426217a26.557302 26.557302 0 0 1-6.098343 12.88521 26.163861 26.163861 0 0 1-36.983503 2.459009l-245.900946-214.917427-6.393425-5.11474a78.688303 78.688303 0 0 0-45.442495-14.360615H242.701725a78.688303 78.688303 0 0 1-71.212914-78.688303v-217.376436a78.688303 78.688303 0 0 1 78.688303-71.212915h23.114689l422.949627 422.949628z"
          p-id="7922" fill="#bbbbbb"></path>
</svg>