<svg width="54" height="54" viewBox="0 0 54 54" fill="none" xmlns="http://www.w3.org/2000/svg">
<rect x="0.5" y="0.5" width="53" height="53" rx="5.5" fill="#414146" stroke="#655A5A" stroke-dasharray="2 2"/>
<path d="M28.6465 10.1362C28.1773 9.90752 27.6211 9.97067 27.2131 10.2964C27.1943 10.3126 25.2095 11.9027 23.0195 13.532C19.2078 16.3649 18.0973 16.8369 17.8728 16.9117H13.6314C12.5158 16.9117 11.5378 17.3783 10.8737 18.2276C10.3022 18.9568 10 19.9132 10 20.9927V33.0073C10 35.2573 11.811 37.0884 14.039 37.0884H15.7127C16.4599 37.0884 17.0668 36.4762 17.0668 35.7208C17.0668 34.9669 16.4599 34.3556 15.7127 34.3556H14.039C13.306 34.3556 12.7084 33.7496 12.7084 33.0073V20.9927C12.7084 20.4891 12.8286 19.646 13.6314 19.646H17.9629C18.6565 19.646 19.7218 19.3572 24.3658 15.9245C25.1953 15.3131 26.0027 14.6971 26.703 14.1573V39.6509C26.1389 39.1697 25.5098 38.6415 24.8669 38.1163C20.6207 34.6443 20.349 34.3556 19.6367 34.3556C18.8894 34.3556 18.2824 34.9669 18.2824 35.7208C18.2824 36.4369 18.8293 37.0236 19.523 37.0822C19.7203 37.1522 19.968 37.6104 23.4064 40.441C25.3739 42.0595 27.1406 43.6403 27.158 43.6551C27.4109 43.8822 27.7315 44 28.0588 44C28.2453 44 28.4348 43.9615 28.6116 43.8799C29.0984 43.6581 29.4114 43.1699 29.4114 42.6324V11.3667C29.4114 10.8408 29.1141 10.3626 28.6465 10.1362ZM42.5715 32.0478C43.5068 30.527 44 28.7683 44 26.9642C44 25.1585 43.5054 23.3998 42.5715 21.8797C41.6598 20.3983 40.3706 19.2017 38.8437 18.4224C38.1771 18.082 37.3618 18.3508 37.0236 19.0238C36.6854 19.6984 36.9523 20.5199 37.6193 20.8603C39.8852 22.0176 41.2915 24.3562 41.2915 26.9642C41.2915 29.5723 39.8852 31.9116 37.6208 33.0674C36.9538 33.4092 36.687 34.2309 37.0251 34.9039C37.2639 35.379 37.7393 35.6539 38.2337 35.6539C38.4409 35.6539 38.6496 35.6054 38.8455 35.5068C40.3706 34.7267 41.6598 33.5309 42.5715 32.0478ZM36.7608 27.1807H36.7542C36.7544 27.1702 36.7546 27.1596 36.7546 27.1489C36.7546 26.0765 36.4662 25.0692 35.9611 24.1933C35.7925 23.7571 35.3616 23.4467 34.8564 23.4467C34.2044 23.4467 33.6757 23.9635 33.6757 24.6011C33.6757 24.9283 33.8151 25.2234 34.0387 25.4335C34.2758 25.9594 34.4078 26.5393 34.4078 27.1489C34.4078 27.1703 34.4071 27.1915 34.4068 27.2128H34.4142C34.4145 27.2234 34.4148 27.2339 34.4148 27.2446C34.4148 27.8543 34.2827 28.4341 34.0457 28.96C33.8221 29.1701 33.6826 29.4653 33.6826 29.7924C33.6826 30.4299 34.2113 30.9468 34.8633 30.9468C35.3686 30.9468 35.7994 30.6365 35.9681 30.2003C36.4731 29.3244 36.7615 28.3171 36.7615 27.2446C36.7615 27.2233 36.761 27.202 36.7608 27.1807Z" fill="#BBBBBB"/>
</svg>
