<?xml version="1.0" standalone="no"?><!DOCTYPE svg PUBLIC "-//W3C//DTD SVG 1.1//EN" "http://www.w3.org/Graphics/SVG/1.1/DTD/svg11.dtd"><svg t="1701656290563" class="icon custom-cursor-default-hover" viewBox="0 0 1027 1024" version="1.1" xmlns="http://www.w3.org/2000/svg" p-id="6412" xmlns:xlink="http://www.w3.org/1999/xlink" width="128.375" height="128"><path d="M514.885818 1024c-282.321455 0-512-229.678545-512-512s229.678545-512 512-512c282.298182 0 512 229.678545 512 512S797.184 1024 514.885818 1024zM514.885818 44.520727C257.093818 44.520727 47.383273 254.231273 47.383273 512s209.710545 467.502545 467.479273 467.502545c257.768727 0 467.479273-209.733818 467.479273-467.502545S772.631273 44.520727 514.885818 44.520727z" fill="#999999" p-id="6413" class="custom-cursor-on-hover"></path><path d="M524.683636 238.033455c-118.155636 0-184.110545 73.006545-184.925091 188.648727l51.316364 0c-1.629091-83.898182 42.356364-145.454545 131.165091-145.454545 63.511273 0 116.456727 44.776727 116.456727 109.940364 0 42.356364-22.807273 76.567273-52.945455 105.099636-61.858909 57.437091-79.220364 84.433455-82.362182 163.118545l51.968 0c3.072-71.330909 1.466182-69.911273 63.790545-132.189091 41.541818-39.098182 70.865455-78.219636 70.865455-138.496C689.989818 294.237091 615.051636 238.033455 524.683636 238.033455" fill="#999999" p-id="6414"></path><path d="M526.638545 752.523636c-25.693091 0-46.545455 20.852364-46.545455 46.522182 0 25.693091 20.852364 46.545455 46.545455 46.545455 25.693091 0 46.545455-20.852364 46.545455-46.545455C573.184 773.376 552.331636 752.523636 526.638545 752.523636" fill="#999999" p-id="6415"></path></svg>