<?xml version="1.0" standalone="no"?><!DOCTYPE svg PUBLIC "-//W3C//DTD SVG 1.1//EN" "http://www.w3.org/Graphics/SVG/1.1/DTD/svg11.dtd"><svg t="1701157928353" class="icon" viewBox="0 0 1024 1024" version="1.1" xmlns="http://www.w3.org/2000/svg" p-id="4463" xmlns:xlink="http://www.w3.org/1999/xlink" width="128" height="128"><path d="M637.3632 430.7968v151.1936l134.8352 79.6928a66.56 66.56 0 0 0 100.4288-57.3184V406.8352a66.56 66.56 0 0 0-100.9152-57.0112l-134.3488 80.9728z m56.32 119.0912V462.6176L800.768 398.08a10.24 10.24 0 0 1 15.5392 8.7552v197.5296a10.24 10.24 0 0 1-10.24 10.24l-1.8176-0.1536a10.24 10.24 0 0 1-3.4048-1.28l-107.1616-63.2832z" fill="#d81e06" p-id="4464"></path><path d="M588.8 281.6a102.4 102.4 0 0 1 102.4 102.4v243.2a102.4 102.4 0 0 1-102.4 102.4H307.2a102.4 102.4 0 0 1-102.4-102.4V384a102.4 102.4 0 0 1 102.4-102.4h281.6z m0 56.32H307.2a46.08 46.08 0 0 0-45.9264 42.2912L261.12 384v243.2a46.08 46.08 0 0 0 42.2912 45.9264L307.2 673.28h281.6a46.08 46.08 0 0 0 45.9264-42.2912l0.1536-3.7888V384a46.08 46.08 0 0 0-42.2912-45.9264L588.8 337.92z" fill="#d81e06" p-id="4465"></path><path d="M384 460.8m-51.2 0a51.2 51.2 0 1 0 102.4 0 51.2 51.2 0 1 0-102.4 0Z" fill="#d81e06" p-id="4466"></path></svg>