<svg width="4.000000" height="6.000027" viewBox="0 0 4 6.00003" fill="none" xmlns="http://www.w3.org/2000/svg" xmlns:xlink="http://www.w3.org/1999/xlink">
	<desc>
			Created with Pixso.
	</desc>
	<defs/>
	<path id="path" d="M0.564697 5.92501L3.85889 3.30001C3.86963 3.29131 3.88013 3.28196 3.89014 3.27198C3.8999 3.26199 3.90918 3.25143 3.91797 3.24029C3.92676 3.22916 3.93481 3.21752 3.94238 3.20538C3.94995 3.19324 3.95654 3.18069 3.96265 3.16772C3.96875 3.15474 3.97412 3.14144 3.97876 3.1278C3.98364 3.11416 3.9873 3.10029 3.99048 3.08617C3.99365 3.07205 3.99609 3.05779 3.99756 3.04338C3.99927 3.02897 4 3.01452 4 3.00001C4 2.98551 3.99927 2.97105 3.99756 2.95664C3.99609 2.94223 3.99365 2.92797 3.99048 2.91386C3.9873 2.89974 3.98364 2.88586 3.97876 2.87222C3.97412 2.85859 3.96875 2.84528 3.96265 2.83231C3.95654 2.81933 3.94995 2.80678 3.94238 2.79464C3.93481 2.78251 3.92676 2.77087 3.91797 2.75973C3.90918 2.7486 3.8999 2.73803 3.89014 2.72805C3.88013 2.71806 3.86963 2.70872 3.85889 2.70001L0.564697 0.0750122C0.538574 0.0541191 0.51001 0.0374336 0.479492 0.0249443C0.448975 0.0124626 0.417236 0.00465393 0.384766 0.00152588C0.352051 -0.00159836 0.31958 7.24792e-05 0.287354 0.00653839C0.255127 0.0130081 0.224365 0.0240288 0.195068 0.0396004C0.165771 0.055172 0.13916 0.074707 0.114746 0.0981979C0.0905762 0.121685 0.0698242 0.148243 0.0527344 0.177864C0.0354004 0.207485 0.0224609 0.23904 0.0134277 0.272537C0.00439453 0.306034 0 0.340191 0 0.375011L0 5.62501C0 5.65983 0.00439453 5.69399 0.0134277 5.72749C0.0224609 5.76098 0.0354004 5.79254 0.0527344 5.82216C0.0698242 5.85178 0.0905762 5.87834 0.114746 5.90183C0.13916 5.92532 0.165771 5.94485 0.195068 5.96042C0.224365 5.97599 0.255127 5.98701 0.287354 5.99348C0.31958 5.99995 0.352051 6.00163 0.384766 5.9985C0.417236 5.99537 0.448975 5.98756 0.479492 5.97508C0.51001 5.96259 0.538574 5.9459 0.564697 5.92501Z" fill="#99A1B0" fill-opacity="1.000000" fill-rule="nonzero"/>
</svg>
