<?xml version="1.0" standalone="no"?><!DOCTYPE svg PUBLIC "-//W3C//DTD SVG 1.1//EN" "http://www.w3.org/Graphics/SVG/1.1/DTD/svg11.dtd"><svg t="1701656342038" class="icon" viewBox="0 0 1024 1024" version="1.1" xmlns="http://www.w3.org/2000/svg" p-id="8387" xmlns:xlink="http://www.w3.org/1999/xlink" width="128" height="128"><path d="M600.938612 188.982142c-50.2648-78.649268-138.770554-78.695317-189.317787 0.206708L59.838853 738.293933c-50.971905 79.542614-10.114358 152.581094 86.265736 154.390299l730.770586-0.046049c96.756671 1.809205 138.41649-69.236897 87.491657-148.894122-2.710738-4.260024-2.710738-4.260024-10.915607-17.040095-4.102435-6.367011-4.102435-6.367011-7.449669-11.703553-6.883781-10.787694-21.431102-14.062274-32.487925-7.374968-11.056823 6.664793-14.452153 20.773116-7.591909 31.537274 3.442402 5.314029 3.442402 5.314029 7.473205 11.726066 8.204869 12.780071 8.204869 12.780071 10.915607 17.040095 31.16786 48.806589 12.872169 80.023568-46.51643 78.902024l-730.770586 0.046049c-59.813271-1.122567-78.767971-35.018561-47.152926-84.375689l351.805508-549.105083c32.063253-50.066279 77.377298-50.043766 109.417015 0.046049l284.141432 430.626691c7.073092 10.627035 21.642926 13.741979 32.629141 6.916527 10.962679-6.847965 14.146185-21.002336 7.120165-31.67542L600.938612 188.982142z" fill="#999999" p-id="8388"></path><path d="M477.144144 609.653087c0 12.975523 13.122879 23.463388 29.291117 23.463388 16.169261 0 29.29214-10.488889 29.29214-23.463388L535.727401 310.487473c0-12.951987-13.122879-23.464411-29.29214-23.464411-16.169261 0-29.291117 10.512425-29.291117 23.464411L477.144144 609.653087z" fill="#999999" p-id="8389"></path><path d="M477.695706 752.144382c0.115634 14.046924 13.201673 25.278733 29.218462 25.177426 16.016789-0.101307 28.927843-11.536754 28.812209-25.557072l-0.551562-64.627926c-0.115634-13.995759-13.201673-25.303292-29.218462-25.177426-16.045441 0.101307-28.928866 11.511171-28.812209 25.53149L477.695706 752.144382z" fill="#999999" p-id="8390"></path></svg>